<svg xmlns="http://www.w3.org/2000/svg" viewBox="0 0 82 42"><path d="M0 0h82v42H0Z" style="fill:none"/><path d="M62.5 1a3 3 0 0 1 3.36.11c.89.83.67 2.05 0 4 0 0-1.51 4.06-3.06 8.26l-.4 1.08c-1.41 3.83-2.76 7.48-2.92 8-1.5 4.25 2 4.12 4-.15 1.16-2.4 2.64-6.36 2.64-6.36.53-1.56.69-2.5.36-2.83-.1-.11 0-.25.18-.32C69 11.54 71.31 12.62 70 16v.14l-2.68 6.73c-.68 1.66-.6 3.24.41 3.24A4 4 0 0 0 70 25a16.3 16.3 0 0 0 3.72-5.45c.23-.51 1.09-2.42 1.77-4.37a6.59 6.59 0 0 0 .39-2.06.46.46 0 0 1 .2-.46 3.6 3.6 0 0 1 1.67-.42 1.78 1.78 0 0 1 1.46.71 2.91 2.91 0 0 1 .11 2.8l-3.78 10c2-1.23 3.87-1.32 5-.86a2.23 2.23 0 0 1 .94 3.56c-.1.11-.36.08-.36-.09-.1-1.25-2.52-3.5-6.11-1.08l-.15.39-1.06 2.81c-2.62 7-5.41 12.13-9.42 11-2.69-.76-2.38-4.61.52-7.79a54.16 54.16 0 0 1 6.49-5.9c.06-.19.13-.35.18-.51.28-.78.49-1.44.8-2.27l.15-.52c-.17.2-.49.58-.71.82a5.6 5.6 0 0 1-5.33 2.2l-.23-.05a3.25 3.25 0 0 1-2.66-3.28c-2.14 2.66-4.35 3.43-5.8 3.39-2 0-3.38-1.51-2.43-4.29 1.06-3.1 5.5-15.33 6.8-19 .48-1.58.66-2.58.18-3-.12-.1.05-.26.2-.35Zm8.36 28.78c-1.1.88-5.52 4.53-6.75 7.44-.5 1.2-.37 2.15.49 2.24 2 .19 4-3.82 6.23-9.52ZM16 5.35c-.09.33-1.32 3.86-2.7 7.75l-.21.59-.21.59-.22.6c4.69-1.12 13.07-6.57 14-10.08.12-.17.29-.22.56 0a1.82 1.82 0 0 1 .5 1.92c-.76 3-6.42 7.34-11.38 9.55a100 100 0 0 0 4.21 9.11c1.66 3.12 3.42 4.58 6.14 4.74a5.82 5.82 0 0 0 3.9-1.22l.14-.14c.2-.2.51.08.37.32a6.53 6.53 0 0 1-5 2.87c-6.34.43-8.77-3.87-13.3-14.49-.37.12-.81.28-1.25.45-.08.18-2.07 5.64-2.13 5.82-1 2.87-1 4.44-.36 4.89.14.09.07.34-.18.42-2.53.79-4.85-.7-3.56-4.44C6.54 21.27 11.07 8.41 12.29 5c.43-1.29.2-2.12-.49-2.31C8.51 1.78.88 8.75 2 15.18c.19 1.12 1 1.75 1.38 1.67a.13.13 0 0 1 .16.1.13.13 0 0 1 0 .06 1.51 1.51 0 0 1-1.84 1A2.37 2.37 0 0 1 0 15.88C-.6 9.22 6.15 1.23 12.39.58 14.77.33 17 1.54 16 5.35Zm24 9.92-.06.2-2.83 8.16c-.31.85-.1 1.74.5 1.9 1.76.49 4-2.14 5.13-4.73.53-1.26 1-2.53 1.48-3.81.58-1.65 1.1-3.19.78-3.91-.08-.17 0-.26.22-.35.51-.26 2.23-.83 3.14.07.7.67.61 1.77 0 3.43l-.09.25.22-.28c2.7-3.3 4.79-4.29 6.56-3.6l.15.07c2.38 1.07 1.14 5.21-2.12 5.48-.2 0-.35-.13-.16-.41.4-.6.36-1.91-.79-2s-2.83 1.2-4 2.84a27.19 27.19 0 0 0-3.32 7.27c-.28.82-.15 1-.11 1.07a.17.17 0 0 1 0 .1 2.48 2.48 0 0 1-1.76.59c-1.63 0-2.29-.94-2-2.44-1.85 1.77-3.71 2.62-5.35 2.47a2.52 2.52 0 0 1-2.3-2.73 2.2 2.2 0 0 1 .06-.37c-1.43 1.81-3.54 3.27-5.7 3.06s-3.5-1.66-2.8-4.78a62.8 62.8 0 0 1 2.21-7c.51-1.46.62-2.41.29-2.75-.1-.11.06-.25.2-.32 1.69-.89 4.39-.32 3.63 2.09s-2.26 6.49-2.55 7.4c-.74 2.28-.29 3.52.75 3.58s2.43-1 3.42-2.51c1.76-2.52 2.58-5.68 3.38-7.88.2-.56.52-1.87.18-2.35-.09-.12.07-.26.28-.37 1.53-.85 4.28-.64 3.4 2.6Z" style="fill:#5f0080"/></svg>